<?xml version="1.0" encoding="utf-8"?>
<!-- Generator: Adobe Illustrator 16.0.0, SVG Export Plug-In . SVG Version: 6.00 Build 0)  -->
<!DOCTYPE svg PUBLIC "-//W3C//DTD SVG 1.1//EN" "http://www.w3.org/Graphics/SVG/1.1/DTD/svg11.dtd">
<svg version="1.1" id="Camada_1" xmlns="http://www.w3.org/2000/svg" xmlns:xlink="http://www.w3.org/1999/xlink" x="0px" y="0px"
	 width="276.22px" height="51.18px" viewBox="0 0 276.22 51.18" enable-background="new 0 0 276.22 51.18" xml:space="preserve">
<g>
	<g>
		<g>
			<path fill="#5B5B5B" d="M91.227,18.778c0,1.879-0.671,3.447-2.023,4.703c-1.351,1.254-2.998,1.883-4.947,1.883h-9.298
				c-1.948,0-3.598-0.629-4.947-1.883c-1.352-1.256-2.029-2.824-2.029-4.703V8.634c0-1.875,0.677-3.445,2.029-4.701
				c1.349-1.254,2.999-1.884,4.947-1.884h9.298c1.95,0,3.597,0.63,4.947,1.884c1.352,1.256,2.023,2.826,2.023,4.701v1.553
				c0,0.775-0.258,1.161-0.773,1.161h-2.711c-0.257,0-0.517-0.127-0.774-0.386c-0.258-0.26-0.391-0.516-0.391-0.775V8.634
				c0-0.75-0.229-1.387-0.681-1.918c-0.46-0.53-1.008-0.793-1.64-0.793h-9.298c-0.637,0-1.18,0.263-1.639,0.793
				c-0.459,0.531-0.687,1.168-0.687,1.918v10.145c0,0.751,0.228,1.391,0.687,1.922c0.459,0.527,1.002,0.79,1.639,0.79h9.298
				c0.631,0,1.18-0.263,1.64-0.79c0.453-0.531,0.681-1.171,0.681-1.922v-1.549c0-0.257,0.133-0.517,0.391-0.777
				c0.257-0.259,0.517-0.383,0.774-0.383h2.711c0.515,0,0.773,0.383,0.773,1.16V18.778z"/>
			<path fill="#5B5B5B" d="M123.911,18.499c0,1.9-0.681,3.52-2.044,4.858c-1.359,1.339-3.003,2.007-4.93,2.007h-9.366
				c-1.927,0-3.572-0.668-4.93-2.007c-1.364-1.339-2.046-2.958-2.046-4.858V8.847c0-1.879,0.682-3.485,2.046-4.825
				c1.358-1.338,3.003-2.008,4.93-2.008h9.366c1.927,0,3.571,0.67,4.93,2.008c1.363,1.34,2.044,2.946,2.044,4.825V18.499z
				 M119.262,18.499V8.918c0-0.75-0.229-1.384-0.687-1.9c-0.46-0.516-1.004-0.776-1.64-0.776h-9.366c-0.639,0-1.18,0.261-1.64,0.776
				c-0.458,0.517-0.688,1.15-0.688,1.9v9.581c0,0.729,0.229,1.353,0.688,1.881c0.459,0.528,1.001,0.792,1.64,0.792h9.366
				c0.636,0,1.179-0.264,1.64-0.792C119.033,19.852,119.262,19.229,119.262,18.499z"/>
			<path fill="#5B5B5B" d="M156.665,24.414c0,0.635-0.309,0.95-0.918,0.95h-2.818c-0.609,0-0.911-0.315-0.911-0.95V8.918
				c0-0.75-0.231-1.384-0.688-1.9c-0.46-0.516-1.005-0.776-1.642-0.776h-9.366c-0.636,0-1.181,0.261-1.639,0.776
				c-0.459,0.517-0.689,1.15-0.689,1.9v15.496c0,0.635-0.303,0.95-0.911,0.95h-2.818c-0.608,0-0.918-0.315-0.918-0.95V8.847
				c0-1.879,0.682-3.485,2.046-4.825c1.357-1.338,3.004-2.008,4.93-2.008h9.366c1.927,0,3.571,0.67,4.932,2.008
				c1.363,1.34,2.045,2.946,2.045,4.825V24.414z"/>
			<path fill="#5B5B5B" d="M189.419,8.918c0,1.899-0.688,3.521-2.063,4.857c-1.37,1.341-3.021,2.01-4.946,2.01h-10.742
				c-0.608,0-0.918,0.318-0.918,0.95v1.764c0,0.729,0.223,1.353,0.672,1.881c0.447,0.528,0.996,0.792,1.654,0.792h10.744
				c0.607,0,0.916,0.309,0.916,0.914v2.328c0,0.635-0.309,0.95-0.916,0.95h-10.744c-1.947,0-3.604-0.668-4.963-2.007
				c-1.365-1.339-2.047-2.958-2.047-4.858V8.918c0-1.9,0.682-3.528,2.047-4.879c1.359-1.35,3.016-2.025,4.963-2.025h9.334
				c1.926,0,3.576,0.676,4.946,2.025C188.731,5.39,189.419,7.018,189.419,8.918z M184.735,8.918c0-0.75-0.229-1.384-0.688-1.9
				c-0.458-0.516-1.004-0.776-1.639-0.776h-9.334c-0.658,0-1.207,0.261-1.654,0.776c-0.449,0.517-0.672,1.15-0.672,1.9v1.762
				c0,0.605,0.31,0.915,0.918,0.915h10.742c0.635,0,1.181-0.269,1.639-0.794C184.507,10.271,184.735,9.646,184.735,8.918z"/>
			<path fill="#5B5B5B" d="M220.866,18.778c0,1.879-0.671,3.447-2.025,4.703c-1.352,1.254-2.998,1.883-4.945,1.883h-9.299
				c-1.947,0-3.6-0.629-4.945-1.883c-1.354-1.256-2.029-2.824-2.029-4.703V8.634c0-1.875,0.675-3.445,2.029-4.701
				c1.346-1.254,2.998-1.884,4.945-1.884h9.299c1.947,0,3.594,0.63,4.945,1.884c1.354,1.256,2.025,2.826,2.025,4.701v1.553
				c0,0.775-0.26,1.161-0.773,1.161h-2.713c-0.257,0-0.516-0.127-0.773-0.386c-0.258-0.26-0.389-0.516-0.389-0.775V8.634
				c0-0.75-0.232-1.387-0.684-1.918c-0.457-0.53-1.01-0.793-1.639-0.793h-9.299c-0.636,0-1.18,0.263-1.639,0.793
				c-0.459,0.531-0.688,1.168-0.688,1.918v10.145c0,0.751,0.229,1.391,0.688,1.922c0.459,0.527,1.003,0.79,1.639,0.79h9.299
				c0.629,0,1.182-0.263,1.639-0.79c0.451-0.531,0.684-1.171,0.684-1.922v-1.549c0-0.257,0.131-0.517,0.389-0.777
				c0.258-0.259,0.517-0.383,0.773-0.383h2.713c0.514,0,0.773,0.383,0.773,1.16V18.778z"/>
			<path fill="#74A8D9" d="M251.614,18.499c0,1.9-0.685,3.52-2.048,4.858c-1.358,1.339-3.015,2.007-4.964,2.007h-6.621
				c-1.926,0-3.571-0.668-4.929-2.007c-1.365-1.339-2.042-2.958-2.042-4.858V9.432h-2.431c-0.636,0-0.95-0.306-0.95-0.917V6.159
				c0-0.615,0.314-0.92,0.95-0.92h2.431V2.917c0-0.633,0.305-0.952,0.912-0.952h2.82c0.607,0,0.916,0.319,0.916,0.952v2.322h10.594
				c0.613,0,0.918,0.305,0.918,0.92v2.355c0,0.611-0.305,0.917-0.918,0.917h-10.594v9.067c0,0.729,0.23,1.353,0.684,1.881
				c0.457,0.528,1.009,0.792,1.639,0.792h6.621c0.659,0,1.215-0.264,1.674-0.792c0.457-0.528,0.687-1.151,0.687-1.881v-1.444
				c0-0.614,0.304-0.917,0.919-0.917h2.813c0.613,0,0.92,0.303,0.92,0.917V18.499z"/>
			<path fill="#74A8D9" d="M271.302,24.414c0,0.635-0.32,0.95-0.951,0.95h-12.025c-0.632,0-0.952-0.315-0.952-0.95v-2.328
				c0-0.605,0.32-0.914,0.952-0.914h2.734c0.607,0,0.91-0.316,0.91-0.948V7.258c0-0.609-0.303-0.916-0.91-0.916h-2.82
				c-0.607,0-0.918-0.317-0.918-0.948V3.07c0-0.638,0.311-0.953,0.918-0.953h12.151c0.607,0,0.917,0.315,0.917,0.953v2.323
				c0,0.631-0.31,0.948-0.917,0.948h-2.819c-0.607,0-0.911,0.307-0.911,0.916v12.966c0,0.632,0.304,0.948,0.911,0.948h2.779
				c0.631,0,0.951,0.309,0.951,0.914V24.414z"/>
		</g>
		<g>
			<path fill="#868485" d="M113.042,43.698c0,0.4-0.074,0.755-0.221,1.069c-0.148,0.311-0.358,0.574-0.631,0.791
				c-0.271,0.214-0.596,0.375-0.973,0.485c-0.374,0.11-0.79,0.167-1.24,0.167c-0.278,0-0.544-0.023-0.797-0.068
				c-0.25-0.043-0.477-0.097-0.676-0.165c-0.2-0.064-0.37-0.136-0.507-0.207c-0.139-0.073-0.24-0.138-0.306-0.195
				c-0.063-0.059-0.108-0.14-0.138-0.245c-0.03-0.104-0.044-0.244-0.044-0.424c0-0.111,0.006-0.203,0.017-0.277
				c0.011-0.075,0.027-0.137,0.044-0.183c0.017-0.046,0.04-0.079,0.073-0.102c0.032-0.02,0.07-0.029,0.108-0.029
				c0.065,0,0.157,0.039,0.282,0.117c0.126,0.077,0.279,0.163,0.461,0.254c0.183,0.097,0.399,0.181,0.648,0.258
				c0.249,0.077,0.536,0.119,0.859,0.119c0.246,0,0.462-0.027,0.659-0.079c0.198-0.053,0.369-0.129,0.516-0.229
				c0.143-0.103,0.253-0.232,0.332-0.389c0.078-0.155,0.118-0.34,0.118-0.555c0-0.221-0.057-0.406-0.169-0.558
				c-0.113-0.149-0.263-0.283-0.447-0.399c-0.186-0.115-0.395-0.218-0.626-0.307c-0.231-0.091-0.471-0.186-0.717-0.283
				c-0.246-0.098-0.487-0.21-0.719-0.336c-0.235-0.124-0.446-0.277-0.631-0.455c-0.186-0.18-0.334-0.393-0.447-0.643
				c-0.112-0.25-0.168-0.547-0.168-0.895c0-0.307,0.059-0.6,0.177-0.881c0.119-0.281,0.296-0.528,0.533-0.738
				c0.238-0.211,0.536-0.382,0.892-0.509c0.355-0.128,0.77-0.19,1.246-0.19c0.209,0,0.417,0.016,0.628,0.051
				c0.207,0.035,0.393,0.08,0.563,0.131c0.168,0.051,0.311,0.108,0.431,0.17c0.116,0.061,0.208,0.114,0.269,0.16
				c0.061,0.047,0.1,0.087,0.121,0.121c0.021,0.035,0.036,0.074,0.044,0.117c0.009,0.046,0.018,0.098,0.027,0.162
				c0.007,0.063,0.011,0.143,0.011,0.234c0,0.099-0.004,0.182-0.011,0.256c-0.009,0.073-0.023,0.132-0.044,0.178
				c-0.021,0.046-0.045,0.079-0.074,0.101c-0.029,0.021-0.062,0.03-0.096,0.03c-0.052,0-0.128-0.031-0.226-0.096
				c-0.097-0.063-0.226-0.133-0.381-0.205c-0.157-0.07-0.34-0.141-0.553-0.205c-0.209-0.062-0.452-0.094-0.723-0.094
				c-0.245,0-0.459,0.025-0.644,0.083c-0.185,0.055-0.338,0.132-0.457,0.233c-0.12,0.102-0.208,0.223-0.268,0.362
				c-0.061,0.137-0.092,0.288-0.092,0.45c0,0.227,0.058,0.415,0.174,0.569c0.114,0.153,0.265,0.288,0.452,0.403
				c0.184,0.117,0.396,0.222,0.633,0.313c0.237,0.093,0.478,0.188,0.726,0.286c0.246,0.099,0.489,0.209,0.729,0.33
				c0.24,0.121,0.453,0.27,0.64,0.443c0.185,0.174,0.334,0.383,0.447,0.625C112.987,43.074,113.042,43.364,113.042,43.698z"/>
			<path fill="#868485" d="M122.364,41.832c0,0.637-0.085,1.223-0.253,1.758c-0.169,0.535-0.418,0.998-0.752,1.387
				c-0.332,0.389-0.749,0.689-1.25,0.906c-0.5,0.217-1.08,0.328-1.742,0.328c-0.643,0-1.204-0.096-1.68-0.289
				c-0.478-0.191-0.875-0.469-1.195-0.833c-0.318-0.366-0.556-0.808-0.711-1.331c-0.157-0.52-0.235-1.109-0.235-1.77
				c0-0.637,0.083-1.225,0.248-1.76c0.165-0.536,0.416-0.998,0.747-1.387c0.333-0.387,0.749-0.688,1.249-0.901
				c0.495-0.214,1.079-0.321,1.745-0.321c0.643,0,1.203,0.096,1.681,0.285c0.477,0.191,0.875,0.471,1.193,0.836
				c0.318,0.362,0.559,0.806,0.716,1.328C122.284,40.59,122.364,41.176,122.364,41.832z M120.877,41.926
				c0-0.422-0.039-0.821-0.118-1.197c-0.081-0.377-0.211-0.707-0.391-0.99c-0.182-0.284-0.427-0.508-0.737-0.674
				c-0.31-0.164-0.695-0.246-1.156-0.246c-0.426,0-0.792,0.075-1.1,0.225c-0.308,0.15-0.56,0.365-0.76,0.639
				c-0.198,0.275-0.345,0.6-0.441,0.977s-0.144,0.788-0.144,1.232c0,0.43,0.039,0.832,0.119,1.209
				c0.079,0.375,0.208,0.705,0.395,0.984c0.184,0.283,0.43,0.505,0.738,0.672c0.311,0.165,0.697,0.245,1.158,0.245
				c0.422,0,0.785-0.074,1.095-0.226c0.309-0.148,0.564-0.361,0.762-0.634c0.199-0.272,0.346-0.597,0.44-0.972
				C120.831,42.793,120.877,42.379,120.877,41.926z"/>
			<path fill="#868485" d="M125.907,45.827c0,0.046-0.013,0.086-0.035,0.117c-0.023,0.03-0.06,0.06-0.112,0.081
				c-0.052,0.023-0.125,0.043-0.217,0.053c-0.092,0.012-0.212,0.018-0.357,0.018c-0.138,0-0.253-0.006-0.347-0.018
				c-0.092-0.01-0.165-0.029-0.221-0.053c-0.056-0.021-0.091-0.051-0.114-0.081c-0.018-0.031-0.03-0.071-0.03-0.117V34.222
				c0-0.046,0.012-0.087,0.03-0.122c0.023-0.033,0.058-0.063,0.114-0.086s0.129-0.04,0.221-0.053
				c0.093-0.012,0.208-0.017,0.347-0.017c0.145,0,0.265,0.005,0.357,0.017c0.092,0.013,0.165,0.029,0.217,0.053
				c0.052,0.023,0.089,0.053,0.112,0.086c0.022,0.035,0.035,0.076,0.035,0.122V45.827z"/>
			<path fill="#868485" d="M135.254,45.827c0,0.046-0.013,0.086-0.033,0.117c-0.02,0.03-0.056,0.06-0.106,0.081
				c-0.052,0.023-0.122,0.043-0.205,0.053c-0.085,0.012-0.188,0.018-0.309,0.018c-0.133,0-0.241-0.006-0.324-0.018
				c-0.086-0.01-0.153-0.029-0.201-0.053c-0.047-0.021-0.082-0.051-0.102-0.081c-0.016-0.031-0.023-0.071-0.023-0.117v-1.034
				c-0.447,0.492-0.886,0.852-1.321,1.076c-0.434,0.227-0.875,0.342-1.32,0.342c-0.521,0-0.959-0.089-1.316-0.263
				s-0.646-0.409-0.866-0.708s-0.376-0.646-0.472-1.041c-0.096-0.398-0.143-0.88-0.143-1.447v-4.744c0-0.044,0.009-0.084,0.03-0.117
				c0.021-0.031,0.059-0.06,0.118-0.086c0.057-0.025,0.131-0.043,0.225-0.051c0.092-0.01,0.209-0.015,0.348-0.015
				c0.141,0,0.256,0.005,0.348,0.015c0.092,0.008,0.167,0.025,0.222,0.051c0.055,0.026,0.094,0.055,0.117,0.086
				c0.023,0.033,0.035,0.073,0.035,0.117v4.553c0,0.457,0.033,0.824,0.099,1.099s0.167,0.511,0.304,0.704
				c0.138,0.195,0.309,0.344,0.517,0.451c0.209,0.108,0.451,0.162,0.73,0.162c0.359,0,0.717-0.129,1.072-0.383
				c0.356-0.255,0.734-0.629,1.134-1.121v-5.465c0-0.044,0.01-0.084,0.032-0.117c0.019-0.031,0.058-0.06,0.116-0.086
				c0.059-0.025,0.132-0.043,0.222-0.051c0.09-0.01,0.205-0.015,0.35-0.015c0.14,0,0.256,0.005,0.349,0.015
				c0.093,0.008,0.165,0.025,0.218,0.051c0.052,0.026,0.092,0.055,0.117,0.086c0.024,0.033,0.04,0.073,0.04,0.117V45.827z"/>
			<path fill="#868485" d="M143.522,44.637c0,0.098-0.002,0.184-0.008,0.255c-0.006,0.073-0.016,0.136-0.031,0.185
				c-0.015,0.049-0.031,0.091-0.053,0.13c-0.021,0.038-0.064,0.093-0.139,0.163c-0.072,0.074-0.199,0.166-0.383,0.279
				c-0.182,0.112-0.408,0.221-0.682,0.322c-0.271,0.1-0.578,0.172-0.92,0.213l0.227,0.504c0.122,0.26,0.21,0.475,0.265,0.646
				c0.054,0.172,0.081,0.33,0.081,0.482c0,0.22-0.038,0.418-0.12,0.589c-0.082,0.175-0.196,0.321-0.347,0.439
				c-0.152,0.119-0.332,0.21-0.54,0.274c-0.208,0.063-0.442,0.095-0.702,0.095c-0.196,0-0.387-0.013-0.569-0.038
				c-0.183-0.027-0.341-0.053-0.469-0.082c-0.132-0.031-0.221-0.057-0.27-0.08c-0.05-0.022-0.083-0.052-0.104-0.087
				c-0.021-0.034-0.035-0.077-0.044-0.129c-0.008-0.052-0.014-0.122-0.014-0.208c0-0.18,0.02-0.301,0.058-0.362
				c0.038-0.06,0.1-0.091,0.187-0.091h1.076c0.187,0,0.332-0.039,0.434-0.116c0.105-0.079,0.158-0.196,0.158-0.353
				c0-0.074-0.019-0.168-0.053-0.279c-0.035-0.114-0.081-0.234-0.138-0.363l-0.408-0.903c-0.591-0.11-1.083-0.343-1.477-0.698
				s-0.69-0.821-0.886-1.394c-0.198-0.575-0.296-1.247-0.296-2.017c0-0.771,0.095-1.432,0.282-1.984
				c0.187-0.554,0.446-1.008,0.774-1.359c0.326-0.354,0.711-0.617,1.154-0.786c0.442-0.171,0.921-0.257,1.437-0.257
				c0.25,0,0.491,0.022,0.727,0.07c0.235,0.046,0.449,0.105,0.647,0.182c0.195,0.077,0.372,0.162,0.524,0.261
				c0.154,0.097,0.266,0.185,0.336,0.251c0.068,0.07,0.115,0.125,0.142,0.165c0.027,0.042,0.048,0.089,0.066,0.146
				c0.017,0.055,0.028,0.117,0.034,0.186c0.006,0.07,0.008,0.156,0.008,0.262c0,0.223-0.025,0.381-0.077,0.473
				c-0.054,0.09-0.115,0.134-0.192,0.134c-0.087,0-0.186-0.048-0.299-0.142c-0.111-0.096-0.255-0.201-0.43-0.318
				c-0.175-0.115-0.383-0.222-0.631-0.316c-0.244-0.098-0.535-0.145-0.871-0.145c-0.69,0-1.219,0.266-1.586,0.797
				c-0.368,0.529-0.553,1.296-0.553,2.305c0,0.504,0.048,0.944,0.143,1.324c0.098,0.379,0.238,0.695,0.422,0.952
				c0.187,0.255,0.413,0.443,0.682,0.567c0.271,0.125,0.579,0.188,0.927,0.188c0.331,0,0.618-0.054,0.868-0.157
				s0.465-0.219,0.646-0.342c0.183-0.126,0.334-0.238,0.463-0.342c0.121-0.099,0.219-0.15,0.291-0.15
				c0.038,0,0.073,0.012,0.103,0.034c0.028,0.024,0.054,0.063,0.071,0.116c0.023,0.057,0.037,0.127,0.047,0.209
				C143.518,44.422,143.522,44.521,143.522,44.637z"/>
			<path fill="#868485" d="M152.547,41.832c0,0.637-0.083,1.223-0.252,1.758c-0.168,0.535-0.417,0.998-0.751,1.387
				c-0.333,0.389-0.748,0.689-1.25,0.906s-1.081,0.328-1.742,0.328c-0.643,0-1.203-0.096-1.68-0.289
				c-0.479-0.191-0.877-0.469-1.195-0.833c-0.318-0.366-0.557-0.808-0.712-1.331c-0.155-0.52-0.235-1.109-0.235-1.77
				c0-0.637,0.082-1.225,0.25-1.76c0.163-0.536,0.413-0.998,0.745-1.387c0.331-0.387,0.747-0.688,1.247-0.901
				c0.498-0.214,1.079-0.321,1.746-0.321c0.643,0,1.201,0.096,1.679,0.285c0.479,0.191,0.877,0.471,1.196,0.836
				c0.316,0.362,0.557,0.806,0.717,1.328C152.469,40.59,152.547,41.176,152.547,41.832z M151.53,34.63
				c0,0.614-0.149,1.083-0.451,1.407c-0.3,0.324-0.711,0.486-1.225,0.486c-0.213,0-0.406-0.027-0.572-0.082
				c-0.168-0.057-0.32-0.127-0.462-0.213c-0.137-0.086-0.265-0.18-0.382-0.276c-0.115-0.101-0.229-0.192-0.342-0.28
				c-0.113-0.086-0.225-0.157-0.334-0.211c-0.112-0.055-0.23-0.084-0.357-0.084c-0.231,0-0.392,0.086-0.486,0.252
				c-0.092,0.168-0.139,0.393-0.139,0.669c0,0.04-0.006,0.077-0.018,0.109c-0.011,0.032-0.036,0.058-0.075,0.073
				c-0.036,0.019-0.093,0.03-0.163,0.034c-0.073,0.007-0.165,0.009-0.273,0.009c-0.094,0-0.17-0.003-0.234-0.012
				c-0.064-0.008-0.116-0.027-0.152-0.053c-0.039-0.025-0.065-0.063-0.082-0.113c-0.02-0.049-0.027-0.111-0.027-0.187
				c0-0.573,0.145-1.03,0.437-1.372c0.287-0.343,0.702-0.513,1.241-0.513c0.313,0,0.582,0.058,0.807,0.179
				c0.227,0.118,0.431,0.249,0.613,0.39c0.182,0.144,0.354,0.274,0.512,0.396c0.158,0.122,0.332,0.183,0.516,0.183
				c0.209,0,0.365-0.075,0.474-0.229s0.162-0.383,0.162-0.683c0-0.093,0.03-0.153,0.091-0.187c0.061-0.031,0.192-0.048,0.395-0.048
				c0.213,0,0.355,0.022,0.427,0.065C151.497,34.383,151.53,34.48,151.53,34.63z M151.062,41.926c0-0.422-0.039-0.821-0.118-1.197
				c-0.079-0.377-0.207-0.707-0.388-0.99c-0.183-0.284-0.428-0.508-0.738-0.674c-0.309-0.164-0.695-0.246-1.156-0.246
				c-0.428,0-0.793,0.075-1.1,0.225c-0.307,0.15-0.561,0.365-0.759,0.639c-0.2,0.275-0.347,0.6-0.443,0.977
				s-0.145,0.788-0.145,1.232c0,0.43,0.039,0.832,0.12,1.209c0.077,0.375,0.208,0.705,0.395,0.984
				c0.182,0.283,0.43,0.505,0.74,0.672c0.309,0.165,0.693,0.245,1.155,0.245c0.42,0,0.788-0.074,1.095-0.226
				c0.312-0.148,0.563-0.361,0.764-0.634c0.2-0.272,0.345-0.597,0.438-0.972C151.017,42.793,151.062,42.379,151.062,41.926z"/>
			<path fill="#868485" d="M161.329,41.579c0,0.226-0.057,0.386-0.17,0.481s-0.242,0.145-0.389,0.145h-5.148
				c0,0.434,0.045,0.826,0.131,1.172c0.087,0.349,0.232,0.646,0.438,0.895c0.203,0.25,0.468,0.44,0.793,0.573
				c0.324,0.134,0.725,0.2,1.197,0.2c0.372,0,0.702-0.029,0.994-0.092c0.291-0.062,0.543-0.128,0.754-0.203
				c0.213-0.075,0.387-0.145,0.525-0.205c0.135-0.061,0.238-0.092,0.309-0.092c0.041,0,0.076,0.011,0.11,0.031
				c0.03,0.021,0.057,0.051,0.073,0.092c0.019,0.041,0.03,0.098,0.041,0.168c0.006,0.074,0.011,0.162,0.011,0.267
				c0,0.075-0.003,0.14-0.007,0.195c-0.008,0.056-0.014,0.104-0.022,0.147c-0.011,0.043-0.023,0.082-0.044,0.12
				c-0.02,0.032-0.047,0.065-0.079,0.098c-0.032,0.031-0.124,0.083-0.28,0.155c-0.158,0.072-0.36,0.143-0.611,0.213
				c-0.247,0.07-0.534,0.131-0.861,0.187c-0.328,0.056-0.676,0.085-1.047,0.085c-0.643,0-1.208-0.092-1.689-0.271
				c-0.484-0.18-0.89-0.445-1.221-0.799c-0.329-0.354-0.578-0.796-0.747-1.328c-0.167-0.533-0.252-1.154-0.252-1.859
				c0-0.672,0.087-1.275,0.261-1.811s0.425-0.991,0.751-1.366c0.327-0.37,0.724-0.658,1.185-0.856
				c0.465-0.201,0.982-0.301,1.557-0.301c0.613,0,1.135,0.098,1.567,0.295c0.431,0.197,0.785,0.461,1.063,0.795
				c0.279,0.332,0.482,0.724,0.612,1.173c0.131,0.446,0.196,0.925,0.196,1.437V41.579z M159.888,41.154
				c0.017-0.753-0.151-1.344-0.504-1.771c-0.352-0.43-0.877-0.643-1.568-0.643c-0.355,0-0.668,0.063-0.935,0.197
				c-0.269,0.135-0.493,0.309-0.671,0.53c-0.184,0.22-0.322,0.478-0.422,0.771c-0.099,0.291-0.154,0.598-0.166,0.916H159.888z"/>
			<path fill="#868485" d="M168.417,43.698c0,0.4-0.074,0.755-0.221,1.069c-0.148,0.311-0.359,0.574-0.63,0.791
				c-0.273,0.214-0.597,0.375-0.974,0.485c-0.378,0.11-0.791,0.167-1.24,0.167c-0.279,0-0.545-0.023-0.795-0.068
				c-0.254-0.043-0.479-0.097-0.68-0.165c-0.199-0.064-0.369-0.136-0.509-0.207c-0.14-0.073-0.239-0.138-0.304-0.195
				c-0.063-0.059-0.109-0.14-0.139-0.245c-0.029-0.104-0.043-0.244-0.043-0.424c0-0.111,0.006-0.203,0.018-0.277
				c0.012-0.075,0.025-0.137,0.045-0.183c0.016-0.046,0.041-0.079,0.072-0.102c0.031-0.02,0.068-0.029,0.106-0.029
				c0.065,0,0.161,0.039,0.283,0.117c0.124,0.077,0.278,0.163,0.462,0.254c0.182,0.097,0.398,0.181,0.646,0.258
				c0.249,0.077,0.537,0.119,0.859,0.119c0.244,0,0.465-0.027,0.662-0.079c0.195-0.053,0.365-0.129,0.51-0.229
				c0.146-0.103,0.256-0.232,0.337-0.389c0.076-0.155,0.116-0.34,0.116-0.555c0-0.221-0.057-0.406-0.169-0.558
				c-0.112-0.149-0.263-0.283-0.447-0.399c-0.187-0.115-0.394-0.218-0.626-0.307c-0.23-0.091-0.471-0.186-0.717-0.283
				c-0.248-0.098-0.484-0.21-0.721-0.336c-0.234-0.124-0.443-0.277-0.629-0.455c-0.186-0.18-0.334-0.393-0.447-0.643
				c-0.115-0.25-0.171-0.547-0.171-0.895c0-0.307,0.06-0.6,0.179-0.881s0.297-0.528,0.534-0.738c0.237-0.211,0.534-0.382,0.89-0.509
				c0.356-0.128,0.773-0.19,1.248-0.19c0.208,0,0.416,0.016,0.623,0.051c0.209,0.035,0.396,0.08,0.566,0.131
				c0.168,0.051,0.311,0.108,0.43,0.17c0.119,0.061,0.209,0.114,0.27,0.16c0.061,0.047,0.102,0.087,0.121,0.121
				c0.019,0.035,0.036,0.074,0.043,0.117c0.008,0.046,0.018,0.098,0.027,0.162c0.008,0.063,0.012,0.143,0.012,0.234
				c0,0.099-0.004,0.182-0.012,0.256c-0.01,0.073-0.023,0.132-0.045,0.178s-0.045,0.079-0.074,0.101
				c-0.028,0.021-0.059,0.03-0.094,0.03c-0.053,0-0.128-0.031-0.226-0.096c-0.099-0.063-0.227-0.133-0.384-0.205
				c-0.156-0.07-0.34-0.141-0.553-0.205c-0.209-0.062-0.449-0.094-0.723-0.094c-0.244,0-0.457,0.025-0.644,0.083
				c-0.186,0.055-0.339,0.132-0.456,0.233c-0.119,0.102-0.209,0.223-0.27,0.362c-0.059,0.137-0.092,0.288-0.092,0.45
				c0,0.227,0.061,0.415,0.175,0.569c0.116,0.153,0.267,0.288,0.452,0.403c0.186,0.117,0.396,0.222,0.634,0.313
				c0.237,0.093,0.479,0.188,0.726,0.286c0.246,0.099,0.489,0.209,0.729,0.33c0.239,0.121,0.453,0.27,0.638,0.443
				c0.186,0.174,0.336,0.383,0.448,0.625C168.36,43.074,168.417,43.364,168.417,43.698z"/>
			<path fill="#868485" d="M180.108,44.637c0,0.098-0.004,0.184-0.009,0.255c-0.007,0.073-0.015,0.136-0.028,0.185
				c-0.018,0.049-0.033,0.091-0.055,0.13c-0.021,0.038-0.065,0.093-0.139,0.163c-0.072,0.074-0.195,0.163-0.369,0.271
				c-0.174,0.107-0.368,0.201-0.586,0.286c-0.219,0.084-0.454,0.151-0.707,0.202c-0.256,0.055-0.52,0.082-0.793,0.082
				c-0.561,0-1.059-0.094-1.494-0.28c-0.432-0.185-0.797-0.456-1.09-0.813c-0.291-0.355-0.515-0.793-0.668-1.311
				c-0.154-0.517-0.229-1.115-0.229-1.794c0-0.771,0.095-1.432,0.282-1.984c0.186-0.554,0.445-1.008,0.773-1.359
				c0.326-0.354,0.711-0.617,1.154-0.786c0.443-0.171,0.923-0.257,1.438-0.257c0.25,0,0.49,0.022,0.725,0.07
				c0.236,0.046,0.45,0.105,0.647,0.182c0.196,0.077,0.373,0.162,0.528,0.261c0.151,0.097,0.264,0.185,0.333,0.251
				c0.07,0.07,0.116,0.125,0.143,0.165c0.026,0.042,0.049,0.089,0.065,0.146c0.018,0.055,0.027,0.117,0.033,0.186
				c0.008,0.07,0.01,0.156,0.01,0.262c0,0.223-0.025,0.381-0.077,0.473c-0.052,0.09-0.118,0.134-0.192,0.134
				c-0.086,0-0.188-0.048-0.3-0.142c-0.112-0.096-0.255-0.201-0.429-0.318c-0.174-0.115-0.385-0.222-0.629-0.316
				c-0.246-0.098-0.539-0.145-0.875-0.145c-0.689,0-1.217,0.266-1.584,0.797c-0.368,0.529-0.554,1.296-0.554,2.305
				c0,0.504,0.048,0.944,0.144,1.324c0.098,0.379,0.238,0.695,0.422,0.952c0.186,0.255,0.412,0.443,0.684,0.567
				c0.268,0.125,0.578,0.188,0.925,0.188c0.329,0,0.62-0.054,0.869-0.157c0.246-0.104,0.464-0.219,0.647-0.342
				c0.18-0.126,0.334-0.238,0.459-0.342c0.125-0.099,0.221-0.15,0.29-0.15c0.04,0,0.075,0.012,0.106,0.034
				c0.027,0.024,0.051,0.063,0.07,0.116c0.022,0.057,0.037,0.127,0.045,0.209C180.103,44.422,180.108,44.521,180.108,44.637z"/>
			<path fill="#868485" d="M186.579,38.521c0,0.127-0.003,0.234-0.01,0.32c-0.006,0.088-0.017,0.157-0.033,0.205
				c-0.017,0.049-0.039,0.088-0.065,0.113c-0.024,0.027-0.064,0.039-0.108,0.039c-0.047,0-0.104-0.012-0.17-0.039
				c-0.066-0.025-0.142-0.051-0.225-0.078c-0.084-0.025-0.179-0.051-0.283-0.073c-0.105-0.025-0.218-0.035-0.34-0.035
				c-0.144,0-0.284,0.029-0.426,0.087c-0.137,0.058-0.285,0.154-0.439,0.287c-0.151,0.132-0.313,0.31-0.48,0.529
				s-0.352,0.488-0.555,0.807v5.144c0,0.046-0.013,0.086-0.033,0.117c-0.023,0.03-0.062,0.06-0.116,0.081
				c-0.051,0.023-0.124,0.043-0.218,0.053c-0.092,0.012-0.209,0.018-0.354,0.018c-0.141,0-0.255-0.006-0.348-0.018
				c-0.094-0.01-0.167-0.029-0.223-0.053c-0.055-0.021-0.093-0.051-0.113-0.081c-0.02-0.031-0.029-0.071-0.029-0.117v-7.819
				c0-0.044,0.008-0.084,0.025-0.117c0.018-0.031,0.052-0.06,0.104-0.086c0.052-0.025,0.118-0.043,0.199-0.051
				c0.081-0.01,0.188-0.015,0.321-0.015c0.127,0,0.233,0.005,0.318,0.015c0.084,0.008,0.148,0.025,0.193,0.051
				c0.049,0.026,0.082,0.055,0.1,0.086c0.021,0.033,0.031,0.073,0.031,0.117v1.141c0.216-0.314,0.416-0.57,0.605-0.766
				c0.189-0.197,0.364-0.352,0.534-0.463c0.167-0.115,0.335-0.193,0.498-0.238c0.167-0.041,0.331-0.063,0.501-0.063
				c0.074,0,0.16,0.004,0.255,0.012c0.096,0.01,0.196,0.025,0.301,0.049s0.198,0.05,0.28,0.078c0.086,0.029,0.146,0.059,0.179,0.087
				c0.036,0.029,0.06,0.056,0.071,0.084c0.01,0.024,0.02,0.058,0.029,0.099c0.008,0.04,0.014,0.1,0.019,0.178
				C186.577,38.281,186.579,38.388,186.579,38.521z"/>
			<path fill="#868485" d="M189.812,35.368c0,0.337-0.066,0.565-0.191,0.687c-0.127,0.123-0.361,0.185-0.705,0.185
				c-0.334,0-0.565-0.062-0.688-0.181c-0.125-0.117-0.188-0.344-0.188-0.673c0-0.335,0.064-0.565,0.193-0.686
				c0.125-0.122,0.36-0.184,0.703-0.184c0.336,0,0.565,0.061,0.689,0.179C189.748,34.814,189.812,35.039,189.812,35.368z
				 M189.646,45.827c0,0.046-0.013,0.086-0.035,0.117c-0.023,0.03-0.061,0.06-0.111,0.081c-0.055,0.023-0.126,0.043-0.219,0.053
				c-0.092,0.012-0.21,0.018-0.354,0.018c-0.141,0-0.257-0.006-0.349-0.018c-0.094-0.01-0.165-0.029-0.223-0.053
				c-0.055-0.021-0.092-0.051-0.111-0.081c-0.021-0.031-0.031-0.071-0.031-0.117v-7.819c0-0.039,0.01-0.078,0.031-0.113
				c0.02-0.033,0.057-0.063,0.111-0.085c0.058-0.022,0.129-0.04,0.223-0.052c0.092-0.012,0.208-0.019,0.349-0.019
				c0.145,0,0.263,0.007,0.354,0.019c0.093,0.012,0.164,0.029,0.219,0.052c0.051,0.022,0.088,0.052,0.111,0.085
				c0.022,0.035,0.035,0.074,0.035,0.113V45.827z"/>
			<path fill="#868485" d="M198.184,45.836c0,0.069-0.022,0.122-0.07,0.157c-0.047,0.032-0.109,0.06-0.19,0.077
				c-0.082,0.017-0.2,0.025-0.355,0.025c-0.15,0-0.272-0.009-0.361-0.025c-0.09-0.018-0.153-0.045-0.193-0.077
				c-0.043-0.035-0.063-0.088-0.063-0.157v-0.782c-0.342,0.366-0.721,0.649-1.142,0.852s-0.865,0.306-1.334,0.306
				c-0.411,0-0.784-0.057-1.116-0.163c-0.333-0.107-0.615-0.262-0.854-0.464c-0.232-0.203-0.416-0.453-0.544-0.748
				c-0.132-0.294-0.196-0.631-0.196-1.006c0-0.44,0.09-0.823,0.27-1.146c0.18-0.326,0.436-0.595,0.773-0.809
				c0.336-0.215,0.746-0.374,1.232-0.481c0.487-0.108,1.034-0.161,1.642-0.161h1.078v-0.608c0-0.302-0.034-0.567-0.097-0.799
				c-0.063-0.229-0.166-0.425-0.309-0.579c-0.141-0.151-0.324-0.268-0.551-0.346s-0.504-0.119-0.834-0.119
				c-0.353,0-0.67,0.043-0.95,0.127c-0.281,0.086-0.527,0.176-0.739,0.279c-0.211,0.1-0.387,0.193-0.529,0.277
				s-0.248,0.126-0.316,0.126c-0.049,0-0.088-0.013-0.123-0.034c-0.035-0.024-0.063-0.06-0.091-0.105
				c-0.026-0.045-0.044-0.105-0.057-0.179c-0.013-0.071-0.017-0.151-0.017-0.237c0-0.146,0.009-0.26,0.029-0.346
				c0.021-0.082,0.072-0.163,0.148-0.236c0.079-0.076,0.212-0.164,0.402-0.265c0.193-0.103,0.414-0.195,0.662-0.279
				c0.249-0.083,0.52-0.154,0.815-0.208c0.295-0.056,0.593-0.082,0.896-0.082c0.561,0,1.038,0.063,1.433,0.19
				c0.394,0.127,0.712,0.314,0.956,0.56c0.242,0.247,0.421,0.554,0.529,0.916c0.108,0.365,0.165,0.791,0.165,1.277V45.836z
				 M196.76,42.266h-1.226c-0.394,0-0.736,0.032-1.025,0.099c-0.29,0.067-0.529,0.166-0.719,0.296
				c-0.193,0.131-0.333,0.287-0.422,0.471c-0.092,0.182-0.135,0.391-0.135,0.627c0,0.408,0.127,0.729,0.385,0.971
				c0.257,0.24,0.619,0.36,1.081,0.36c0.38,0,0.726-0.097,1.048-0.287c0.32-0.19,0.659-0.482,1.013-0.877V42.266z"/>
			<path fill="#868485" d="M207.45,37.783c0.176,0,0.295,0.041,0.357,0.117c0.063,0.079,0.096,0.191,0.096,0.343v7.584
				c0,0.046-0.01,0.086-0.035,0.117c-0.022,0.03-0.063,0.06-0.117,0.081c-0.055,0.023-0.13,0.043-0.223,0.053
				c-0.09,0.012-0.205,0.018-0.337,0.018c-0.146,0-0.265-0.006-0.355-0.018c-0.093-0.01-0.168-0.029-0.224-0.053
				c-0.053-0.021-0.092-0.051-0.115-0.081c-0.023-0.031-0.036-0.071-0.036-0.117v-6.854h-4.038v4.36c0,0.539,0.079,0.945,0.239,1.22
				c0.157,0.275,0.443,0.414,0.855,0.414c0.134,0,0.251-0.015,0.356-0.039c0.103-0.027,0.197-0.054,0.276-0.084
				c0.082-0.028,0.151-0.058,0.208-0.082c0.059-0.026,0.111-0.04,0.158-0.04c0.028,0,0.056,0.009,0.081,0.021
				c0.026,0.015,0.047,0.042,0.063,0.084c0.013,0.04,0.026,0.098,0.038,0.164c0.012,0.071,0.018,0.158,0.018,0.262
				c0,0.168-0.012,0.301-0.036,0.395c-0.022,0.097-0.058,0.17-0.103,0.217c-0.047,0.05-0.115,0.094-0.209,0.136
				c-0.093,0.04-0.198,0.071-0.316,0.099c-0.119,0.026-0.244,0.049-0.379,0.065c-0.133,0.019-0.268,0.026-0.398,0.026
				c-0.406,0-0.752-0.053-1.043-0.16c-0.29-0.107-0.525-0.271-0.711-0.487c-0.188-0.218-0.322-0.49-0.404-0.824
				c-0.084-0.333-0.126-0.726-0.126-1.177v-4.569h-1.095c-0.088,0-0.156-0.046-0.21-0.14c-0.051-0.092-0.077-0.242-0.077-0.451
				c0-0.109,0.007-0.203,0.021-0.277c0.015-0.076,0.034-0.137,0.056-0.186c0.022-0.051,0.055-0.088,0.093-0.107
				c0.038-0.018,0.078-0.029,0.125-0.029h1.087v-1.86c0-0.038,0.01-0.077,0.028-0.112c0.022-0.034,0.059-0.064,0.115-0.09
				c0.055-0.026,0.127-0.045,0.22-0.057s0.21-0.018,0.349-0.018c0.143,0,0.262,0.006,0.355,0.018
				c0.092,0.012,0.166,0.03,0.217,0.057c0.053,0.025,0.089,0.056,0.112,0.09c0.024,0.035,0.036,0.074,0.036,0.112v1.86H207.45z
				 M208.067,35.368c0,0.337-0.063,0.565-0.189,0.687c-0.129,0.123-0.361,0.185-0.703,0.185c-0.338,0-0.566-0.062-0.691-0.181
				c-0.125-0.117-0.186-0.344-0.186-0.673c0-0.335,0.063-0.565,0.189-0.686c0.128-0.122,0.361-0.184,0.704-0.184
				c0.335,0,0.566,0.061,0.69,0.179C208.006,34.814,208.067,35.039,208.067,35.368z"/>
			<path fill="#868485" d="M216.972,37.992c0,0.022,0,0.047-0.004,0.072c-0.004,0.027-0.009,0.056-0.012,0.085
				c-0.008,0.028-0.016,0.06-0.022,0.094c-0.01,0.035-0.021,0.073-0.031,0.114l-2.666,7.426c-0.024,0.064-0.054,0.116-0.091,0.156
				c-0.039,0.04-0.096,0.072-0.17,0.096c-0.076,0.022-0.172,0.037-0.289,0.048c-0.113,0.009-0.261,0.013-0.432,0.013
				c-0.174,0-0.318-0.006-0.436-0.018c-0.115-0.01-0.21-0.029-0.283-0.053c-0.07-0.021-0.127-0.055-0.168-0.095
				s-0.072-0.089-0.096-0.147l-2.656-7.426c-0.025-0.07-0.042-0.131-0.058-0.184c-0.015-0.052-0.024-0.092-0.026-0.117
				c-0.004-0.025-0.004-0.049-0.004-0.064c0-0.047,0.011-0.088,0.035-0.121c0.021-0.035,0.061-0.063,0.115-0.082
				c0.056-0.021,0.129-0.035,0.219-0.039c0.089-0.007,0.2-0.011,0.334-0.011c0.168,0,0.303,0.005,0.402,0.015
				c0.102,0.008,0.182,0.024,0.236,0.047c0.054,0.023,0.096,0.051,0.122,0.087c0.026,0.035,0.049,0.079,0.073,0.13l2.205,6.445
				l0.034,0.104l0.028-0.104l2.179-6.445c0.013-0.051,0.032-0.095,0.062-0.13c0.03-0.036,0.071-0.063,0.125-0.087
				c0.056-0.022,0.133-0.039,0.228-0.047c0.095-0.01,0.221-0.015,0.378-0.015c0.131,0,0.242,0.004,0.33,0.011
				c0.086,0.004,0.154,0.02,0.203,0.041c0.049,0.025,0.084,0.053,0.104,0.083C216.962,37.906,216.972,37.945,216.972,37.992z"/>
			<path fill="#868485" d="M224.224,45.836c0,0.069-0.021,0.122-0.068,0.157c-0.047,0.032-0.109,0.06-0.191,0.077
				c-0.081,0.017-0.199,0.025-0.355,0.025c-0.15,0-0.271-0.009-0.361-0.025c-0.09-0.018-0.153-0.045-0.195-0.077
				c-0.04-0.035-0.063-0.088-0.063-0.157v-0.782c-0.34,0.366-0.719,0.649-1.142,0.852c-0.419,0.202-0.862,0.306-1.333,0.306
				c-0.409,0-0.781-0.057-1.113-0.163c-0.334-0.107-0.619-0.262-0.854-0.464c-0.232-0.203-0.418-0.453-0.548-0.748
				c-0.129-0.294-0.194-0.631-0.194-1.006c0-0.44,0.09-0.823,0.268-1.146c0.182-0.326,0.439-0.595,0.776-0.809
				c0.334-0.215,0.745-0.374,1.231-0.481c0.486-0.108,1.034-0.161,1.643-0.161h1.076v-0.608c0-0.302-0.031-0.567-0.094-0.799
				c-0.064-0.229-0.169-0.425-0.311-0.579c-0.143-0.151-0.323-0.268-0.552-0.346c-0.226-0.078-0.503-0.119-0.833-0.119
				c-0.354,0-0.67,0.043-0.951,0.127c-0.279,0.086-0.527,0.176-0.738,0.279c-0.212,0.1-0.389,0.193-0.53,0.277
				s-0.246,0.126-0.317,0.126c-0.047,0-0.086-0.013-0.119-0.034c-0.035-0.024-0.067-0.06-0.092-0.105
				c-0.026-0.045-0.046-0.105-0.057-0.179c-0.012-0.071-0.02-0.151-0.02-0.237c0-0.146,0.012-0.26,0.032-0.346
				c0.019-0.082,0.068-0.163,0.148-0.236c0.077-0.076,0.212-0.164,0.401-0.265c0.193-0.103,0.412-0.195,0.662-0.279
				c0.247-0.083,0.521-0.154,0.816-0.208c0.296-0.056,0.593-0.082,0.896-0.082c0.56,0,1.038,0.063,1.431,0.19
				c0.396,0.127,0.712,0.314,0.957,0.56c0.244,0.247,0.418,0.554,0.53,0.916c0.109,0.365,0.163,0.791,0.163,1.277V45.836z
				 M222.8,42.266h-1.225c-0.393,0-0.735,0.032-1.024,0.099c-0.291,0.067-0.532,0.166-0.722,0.296
				c-0.19,0.131-0.331,0.287-0.42,0.471c-0.092,0.182-0.137,0.391-0.137,0.627c0,0.408,0.131,0.729,0.389,0.971
				c0.256,0.24,0.617,0.36,1.08,0.36c0.378,0,0.725-0.097,1.047-0.287c0.321-0.19,0.659-0.482,1.012-0.877V42.266z"/>
			<path fill="#868485" d="M231.765,43.698c0,0.4-0.074,0.755-0.223,1.069c-0.146,0.311-0.358,0.574-0.628,0.791
				c-0.274,0.214-0.597,0.375-0.975,0.485c-0.375,0.11-0.79,0.167-1.242,0.167c-0.276,0-0.542-0.023-0.795-0.068
				c-0.252-0.043-0.479-0.097-0.677-0.165c-0.199-0.064-0.369-0.136-0.509-0.207c-0.138-0.073-0.241-0.138-0.304-0.195
				c-0.064-0.059-0.11-0.14-0.139-0.245c-0.029-0.104-0.044-0.244-0.044-0.424c0-0.111,0.007-0.203,0.019-0.277
				c0.011-0.075,0.025-0.137,0.042-0.183c0.018-0.046,0.042-0.079,0.074-0.102c0.032-0.02,0.068-0.029,0.108-0.029
				c0.063,0,0.158,0.039,0.283,0.117c0.125,0.077,0.278,0.163,0.461,0.254c0.183,0.097,0.396,0.181,0.645,0.258
				c0.252,0.077,0.537,0.119,0.862,0.119c0.241,0,0.462-0.027,0.659-0.079c0.197-0.053,0.369-0.129,0.512-0.229
				c0.146-0.103,0.257-0.232,0.336-0.389c0.076-0.155,0.115-0.34,0.115-0.555c0-0.221-0.057-0.406-0.168-0.558
				c-0.113-0.149-0.262-0.283-0.445-0.399c-0.187-0.115-0.396-0.218-0.625-0.307c-0.233-0.091-0.473-0.186-0.719-0.283
				s-0.487-0.21-0.721-0.336c-0.234-0.124-0.444-0.277-0.631-0.455c-0.183-0.18-0.334-0.393-0.446-0.643
				c-0.114-0.25-0.17-0.547-0.17-0.895c0-0.307,0.06-0.6,0.179-0.881c0.118-0.281,0.295-0.528,0.534-0.738
				c0.236-0.211,0.534-0.382,0.892-0.509c0.355-0.128,0.77-0.19,1.244-0.19c0.21,0,0.416,0.016,0.625,0.051s0.396,0.08,0.564,0.131
				s0.313,0.108,0.43,0.17c0.121,0.061,0.211,0.114,0.27,0.16c0.062,0.047,0.102,0.087,0.121,0.121
				c0.023,0.035,0.038,0.074,0.045,0.117c0.008,0.046,0.018,0.098,0.025,0.162c0.01,0.063,0.014,0.143,0.014,0.234
				c0,0.099-0.004,0.182-0.014,0.256c-0.008,0.073-0.023,0.132-0.043,0.178c-0.021,0.046-0.044,0.079-0.074,0.101
				c-0.027,0.021-0.061,0.03-0.094,0.03c-0.053,0-0.129-0.031-0.226-0.096c-0.1-0.063-0.228-0.133-0.384-0.205
				c-0.154-0.07-0.339-0.141-0.551-0.205c-0.212-0.062-0.453-0.094-0.725-0.094c-0.243,0-0.459,0.025-0.645,0.083
				c-0.184,0.055-0.336,0.132-0.455,0.233s-0.209,0.223-0.27,0.362c-0.062,0.137-0.092,0.288-0.092,0.45
				c0,0.227,0.059,0.415,0.175,0.569c0.116,0.153,0.266,0.288,0.452,0.403c0.185,0.117,0.396,0.222,0.634,0.313
				c0.237,0.093,0.478,0.188,0.726,0.286c0.246,0.099,0.488,0.209,0.729,0.33s0.452,0.27,0.639,0.443
				c0.186,0.174,0.334,0.383,0.447,0.625C231.708,43.074,231.765,43.364,231.765,43.698z"/>
		</g>
	</g>
	<g>
		<g>
			<path fill="#5B5B5B" d="M38.047,27.807l-0.008-4.372c-5.679,0.979-10.06,5.458-10.956,11.118h4.334
				C32.205,31.295,34.781,28.651,38.047,27.807z"/>
			<path fill="#5B5B5B" d="M42.393,23.419l-0.008,4.317c4.057,0.919,7.105,4.488,7.141,8.801c0.04,5.035-4.042,9.154-9.11,9.191
				c-4.309,0.037-7.978-2.859-9.002-6.82H27.09c1.106,6.354,6.646,11.18,13.358,11.128c7.47-0.058,13.473-6.118,13.408-13.532
				C53.811,29.817,48.843,24.395,42.393,23.419z"/>
		</g>
		<g>
			<path fill="#74A8D9" d="M31.386,16.734h-4.365c0.951,5.73,5.347,10.17,11.026,11.072l-0.008-4.372
				C34.758,22.634,32.216,20.036,31.386,16.734z"/>
			<path fill="#74A8D9" d="M40.094,0.91C33.47,0.965,28.053,5.896,27.012,12.291l4.357-0.007c0.979-3.989,4.508-6.989,8.762-7.021
				c5.034-0.042,9.154,4.049,9.191,9.142c0.033,4.323-2.967,7.982-6.929,9.015l-0.008,4.317c6.354-1.115,11.3-6.631,11.242-13.367
				C53.574,6.878,47.51,0.851,40.094,0.91z"/>
		</g>
		<path fill="#74A8D9" d="M40.347,32.043c2.59-0.027,4.709,2.06,4.727,4.652c0.022,2.584-2.062,4.701-4.651,4.721
			c-2.591,0.02-4.711-2.061-4.726-4.651C35.676,34.176,37.753,32.059,40.347,32.043z"/>
		<path fill="#5B5B5B" d="M40.347,9.92c2.575-0.022,4.682,2.05,4.704,4.63c0.023,2.576-2.055,4.679-4.626,4.7
			c-2.58,0.02-4.684-2.055-4.705-4.629C35.698,12.039,37.765,9.941,40.347,9.92z"/>
		<path fill="#74A8D9" d="M18.304,19.322c-2.59,0.02-4.704-2.088-4.725-4.704c-0.022-2.616,2.062-4.752,4.645-4.772
			c2.597-0.021,4.711,2.085,4.732,4.7C22.977,17.164,20.897,19.302,18.304,19.322z"/>
		<path fill="#5B5B5B" d="M18.31,41.371c-2.543,0.021-4.616-2.043-4.639-4.611c-0.018-2.561,2.021-4.654,4.565-4.671
			c2.533-0.022,4.611,2.04,4.628,4.606C22.883,39.256,20.847,41.35,18.31,41.371z"/>
		<g>
			<path fill="#74A8D9" d="M27.083,34.553h4.334c-0.921-5.744-5.343-10.243-10.965-11.149l-0.016,4.374
				C23.695,28.577,26.283,31.225,27.083,34.553z"/>
			<path fill="#74A8D9" d="M27.09,38.908c-0.952,3.998-4.438,6.992-8.652,7.021c-4.964,0.042-9.026-4.039-9.067-9.114
				c-0.036-4.282,2.834-7.937,6.715-8.984l-0.023-4.372C9.801,24.577,5.064,30.141,5.118,36.844
				c0.063,7.479,6.043,13.481,13.356,13.426c6.559-0.05,11.922-4.965,12.939-11.361H27.09z"/>
		</g>
		<g>
			<path fill="#5B5B5B" d="M16.086,23.447c-3.917-0.988-6.845-4.491-6.882-8.718c-0.033-5.023,4.002-9.131,9.026-9.171
				c4.267-0.028,7.763,2.78,8.782,6.732l4.357-0.007C30.271,5.947,24.846,1.216,18.196,1.268C10.807,1.329,4.859,7.368,4.912,14.765
				c0.052,6.598,4.88,12.013,11.174,13.065V23.447z"/>
			<path fill="#5B5B5B" d="M27.021,16.734c-0.796,3.299-3.275,5.843-6.581,6.646l-0.004,4.396
				c5.696-0.918,10.056-5.352,10.95-11.043H27.021z"/>
		</g>
	</g>
</g>
</svg>
